<svg xmlns="http://www.w3.org/2000/svg" width="960" height="600" viewBox="0 0 960 600">
<rect width="100%" height="100%" fill="white"/>
<text x="92.0" y="34.0" font-size="22" fill="#344054" font-weight="700">Lite sweep: Call limit</text>
<text x="92.0" y="58.0" font-size="13" fill="#344054">Measured one-instance sweep; x-axis: Call limit</text>
<line x1="92" y1="490.0" x2="918" y2="490.0" stroke="#d0d5dd"/>
<text x="80.0" y="495.0" font-size="12" fill="#344054" text-anchor="end">0</text>
<line x1="92" y1="408.4" x2="918" y2="408.4" stroke="#d0d5dd"/>
<text x="80.0" y="413.4" font-size="12" fill="#344054" text-anchor="end">207</text>
<line x1="92" y1="326.8" x2="918" y2="326.8" stroke="#d0d5dd"/>
<text x="80.0" y="331.8" font-size="12" fill="#344054" text-anchor="end">413</text>
<line x1="92" y1="245.2" x2="918" y2="245.2" stroke="#d0d5dd"/>
<text x="80.0" y="250.2" font-size="12" fill="#344054" text-anchor="end">620</text>
<line x1="92" y1="163.6" x2="918" y2="163.6" stroke="#d0d5dd"/>
<text x="80.0" y="168.6" font-size="12" fill="#344054" text-anchor="end">827</text>
<line x1="92" y1="82.0" x2="918" y2="82.0" stroke="#d0d5dd"/>
<text x="80.0" y="87.0" font-size="12" fill="#344054" text-anchor="end">1034</text>
<line x1="92" y1="490" x2="918" y2="490" stroke="#344054"/>
<line x1="92" y1="82" x2="92" y2="490" stroke="#344054"/>
<text x="505.0" y="538.0" font-size="14" fill="#344054" text-anchor="middle">Call limit (calls)</text>
<text x="27.0" y="286.0" font-size="14" fill="#344054" transform="rotate(-90 27 286.0)" text-anchor="middle">Agent trajectory wall time (seconds)</text>
<line x1="92.0" y1="490" x2="92.0" y2="497" stroke="#344054"/>
<text x="92.0" y="516.0" font-size="12" fill="#344054" text-anchor="middle">10</text>
<line x1="298.5" y1="490" x2="298.5" y2="497" stroke="#344054"/>
<text x="298.5" y="516.0" font-size="12" fill="#344054" text-anchor="middle">20</text>
<line x1="918.0" y1="490" x2="918.0" y2="497" stroke="#344054"/>
<text x="918.0" y="516.0" font-size="12" fill="#344054" text-anchor="middle">50</text>
<polyline points="92.0,405.5 298.5,144.2 918.0,401.2" fill="none" stroke="#1769aa" stroke-width="3"/>
<circle cx="92.0" cy="405.5" r="7" fill="#b42318"/>
<text x="92.0" y="392.5" font-size="11" fill="#b42318" text-anchor="middle">unresolved</text>
<circle cx="298.5" cy="144.2" r="7" fill="#b42318"/>
<text x="298.5" y="131.2" font-size="11" fill="#b42318" text-anchor="middle">unresolved</text>
<circle cx="918.0" cy="401.2" r="7" fill="#18794e"/>
<text x="918.0" y="388.2" font-size="11" fill="#18794e" text-anchor="middle">resolved</text>
<line x1="700" y1="48" x2="725" y2="48" stroke="#1769aa" stroke-width="3"/>
<text x="735.0" y="53.0" font-size="12" fill="#344054">trajectory wall time</text>
<circle cx="862" cy="48" r="6" fill="#18794e"/>
<text x="872.0" y="53.0" font-size="12" fill="#344054">resolved</text>
<text x="92.0" y="592.0" font-size="11" fill="#344054">Source: project/MODAL_LITE_SWEEP_MEASURED.json; status labels are official SWE-bench evaluation outcomes.</text>
</svg>