<svg xmlns="http://www.w3.org/2000/svg" width="960" height="600" viewBox="0 0 960 600">
<rect width="100%" height="100%" fill="white"/>
<text x="92.0" y="34.0" font-size="22" fill="#344054" font-weight="700">Lite sweep: Completion max tokens</text>
<text x="92.0" y="58.0" font-size="13" fill="#344054">Measured one-instance sweep; x-axis: Completion max tokens</text>
<line x1="92" y1="490.0" x2="918" y2="490.0" stroke="#d0d5dd"/>
<text x="80.0" y="495.0" font-size="12" fill="#344054" text-anchor="end">0</text>
<line x1="92" y1="408.4" x2="918" y2="408.4" stroke="#d0d5dd"/>
<text x="80.0" y="413.4" font-size="12" fill="#344054" text-anchor="end">74</text>
<line x1="92" y1="326.8" x2="918" y2="326.8" stroke="#d0d5dd"/>
<text x="80.0" y="331.8" font-size="12" fill="#344054" text-anchor="end">149</text>
<line x1="92" y1="245.2" x2="918" y2="245.2" stroke="#d0d5dd"/>
<text x="80.0" y="250.2" font-size="12" fill="#344054" text-anchor="end">223</text>
<line x1="92" y1="163.6" x2="918" y2="163.6" stroke="#d0d5dd"/>
<text x="80.0" y="168.6" font-size="12" fill="#344054" text-anchor="end">297</text>
<line x1="92" y1="82.0" x2="918" y2="82.0" stroke="#d0d5dd"/>
<text x="80.0" y="87.0" font-size="12" fill="#344054" text-anchor="end">372</text>
<line x1="92" y1="490" x2="918" y2="490" stroke="#344054"/>
<line x1="92" y1="82" x2="92" y2="490" stroke="#344054"/>
<text x="505.0" y="538.0" font-size="14" fill="#344054" text-anchor="middle">Completion max tokens (tokens)</text>
<text x="27.0" y="286.0" font-size="14" fill="#344054" transform="rotate(-90 27 286.0)" text-anchor="middle">Agent trajectory wall time (seconds)</text>
<line x1="92.0" y1="490" x2="92.0" y2="497" stroke="#344054"/>
<text x="92.0" y="516.0" font-size="12" fill="#344054" text-anchor="middle">512</text>
<line x1="210.0" y1="490" x2="210.0" y2="497" stroke="#344054"/>
<text x="210.0" y="516.0" font-size="12" fill="#344054" text-anchor="middle">1,024</text>
<line x1="918.0" y1="490" x2="918.0" y2="497" stroke="#344054"/>
<text x="918.0" y="516.0" font-size="12" fill="#344054" text-anchor="middle">4,096</text>
<polyline points="92.0,216.7 210.0,255.1 918.0,144.2" fill="none" stroke="#1769aa" stroke-width="3"/>
<circle cx="92.0" cy="216.7" r="7" fill="#b42318"/>
<text x="92.0" y="203.7" font-size="11" fill="#b42318" text-anchor="middle">unresolved</text>
<circle cx="210.0" cy="255.1" r="7" fill="#b42318"/>
<text x="210.0" y="242.1" font-size="11" fill="#b42318" text-anchor="middle">unresolved</text>
<circle cx="918.0" cy="144.2" r="7" fill="#18794e"/>
<text x="918.0" y="131.2" font-size="11" fill="#18794e" text-anchor="middle">resolved</text>
<line x1="700" y1="48" x2="725" y2="48" stroke="#1769aa" stroke-width="3"/>
<text x="735.0" y="53.0" font-size="12" fill="#344054">trajectory wall time</text>
<circle cx="862" cy="48" r="6" fill="#18794e"/>
<text x="872.0" y="53.0" font-size="12" fill="#344054">resolved</text>
<text x="92.0" y="592.0" font-size="11" fill="#344054">Source: project/MODAL_LITE_SWEEP_MEASURED.json; status labels are official SWE-bench evaluation outcomes.</text>
</svg>